<?xml version="1.0" encoding="utf-8" ?>
<svg baseProfile="tiny" height="150" version="1.2" width="980" xmlns="http://www.w3.org/2000/svg" xmlns:ev="http://www.w3.org/2001/xml-events" xmlns:xlink="http://www.w3.org/1999/xlink"><defs /><line stroke="rgb(0,0,0)" stroke-width="7" x1="80" x2="80" y1="58.625" y2="61.5" /><circle cx="255.0" cy="60.0" fill="rgb(200,200,200)" r="7" stroke="rgb(0,0,0)" stroke-width="2" /><circle cx="395.0" cy="60.0" fill="rgb(200,200,200)" r="7" stroke="rgb(0,0,0)" stroke-width="2" /><circle cx="535.0" cy="60.0" fill="rgb(200,200,200)" r="7" stroke="rgb(0,0,0)" stroke-width="2" /><circle cx="675.0" cy="60.0" fill="rgb(200,200,200)" r="7" stroke="rgb(0,0,0)" stroke-width="2" /><circle cx="885.0" cy="10.0" fill="rgb(200,200,200)" r="7" stroke="rgb(0,0,0)" stroke-width="2" /><circle cx="885.0" cy="110.0" fill="rgb(200,200,200)" r="7" stroke="rgb(0,0,0)" stroke-width="2" /><line stroke="rgb(150,150,150)" stroke-width="3" x1="150" x2="150" y1="60" y2="60" /><line stroke="rgb(150,150,150)" stroke-width="3" x1="220" x2="220" y1="60" y2="60" /><line stroke="rgb(150,150,150)" stroke-width="3" x1="290" x2="290" y1="60" y2="60" /><line stroke="rgb(150,150,150)" stroke-width="3" x1="360" x2="360" y1="60" y2="60" /><line stroke="rgb(150,150,150)" stroke-width="3" x1="430" x2="430" y1="60" y2="60" /><line stroke="rgb(150,150,150)" stroke-width="3" x1="500" x2="500" y1="60" y2="60" /><line stroke="rgb(150,150,150)" stroke-width="3" x1="570" x2="570" y1="60" y2="60" /><line stroke="rgb(150,150,150)" stroke-width="3" x1="640" x2="640" y1="60" y2="60" /><line stroke="rgb(150,150,150)" stroke-width="3" x1="710" x2="710" y1="60" y2="60" /><line stroke="rgb(150,150,150)" stroke-width="3" x1="780" x2="780" y1="60" y2="60" /><line stroke="rgb(150,150,150)" stroke-width="3" x1="850" x2="850" y1="60" y2="60" /><line stroke="rgb(150,150,150)" stroke-width="3" x1="920" x2="920" y1="60" y2="60" /><line stroke="rgb(0,0,0)" stroke-width="3.0" x1="78.5" x2="921.5" y1="60" y2="60" /><text dy="0.3em" font-size="20" font-weight="bold" style="text-anchor:middle" x="255.0" y="100">3</text><text dy="0.3em" font-size="20" font-weight="bold" style="text-anchor:middle" x="395.0" y="100">5</text><text dy="0.3em" font-size="20" font-weight="bold" style="text-anchor:middle" x="535.0" y="100">7</text><text dy="0.3em" font-size="20" font-weight="bold" style="text-anchor:middle" x="675.0" y="100">9</text><text dy="0.3em" font-size="20" font-weight="bold" style="text-anchor:middle" x="885.0" y="100">12</text><text dy="0.3em" font-size="15" font-weight="normal" style="text-anchor:middle" x="955.0" y="60">E</text><circle cx="255.0" cy="60" fill="rgb(231, 0, 0)" r="20" stroke="rgb(0,0,0)" stroke-width="3" /><text dy="0.3em" fill="rgb(255,255,255)" font-size="20" font-weight="bold" style="text-anchor:middle" x="255.0" y="60">1</text></svg>